# xmcd CD database file
#
# Track frame offsets:
#	150
#	14930
#	32878
#	54958
#	70118
#	90133
#	104907
#	114812
#	143892
#	161164
#	176110
#	189160
#
# Disc length: 2785 seconds
#
# Revision: 4
# Processed by: cddbd v1.5.2PL0 Copyright (c) Steve Scherf et al.
# Submitted via: CDex 1.51
#
DISCID=a00adf0c
DTITLE=ROOMFUL OF BLUES - Swingin' - Jumpin'
DYEAR=1999
DGENRE=Blues
TTITLE0=Give It Up
TTITLE1=Jumpin' For Joe
TTITLE2=Honey Hush
TTITLE3=He Was A Friend Of Mine
TTITLE4=That's The Groovy Thing
TTITLE5=Red, Hot And Blue
TTITLE6=Take It Like A Man
TTITLE7=Street Lights
TTITLE8=That's My Life
TTITLE9=House Of Joy
TTITLE10=Cocka-Doodle-Doo
TTITLE11=Duke's Blues
EXTD=YEAR: 1999
EXTT0=
EXTT1=
EXTT2=
EXTT3=
EXTT4=
EXTT5=
EXTT6=
EXTT7=
EXTT8=
EXTT9=
EXTT10=
EXTT11=
PLAYORDER=
